<svg width="24" height="24" viewBox="0 0 24 24" fill="none" xmlns="http://www.w3.org/2000/svg">
    <path d="M4.70496 4.10015L6.65479 15.8034C6.69039 16.0485 6.81211 16.2729 6.99813 16.4365C7.19437 16.6106 7.4488 16.7046 7.71107 16.7H19.2441C19.4646 16.7001 19.6795 16.6308 19.8583 16.5019C20.0372 16.3729 20.1709 16.191 20.2406 15.9819L23.3905 6.53193C23.4431 6.37408 23.4574 6.206 23.4323 6.04153C23.4072 5.87707 23.3433 5.72093 23.246 5.58598C23.1487 5.45104 23.0207 5.34115 22.8726 5.26537C22.7245 5.18959 22.5605 5.1501 22.3941 5.15014H7.00863L6.63379 2.89266C6.5953 2.63473 6.46156 2.40058 6.25894 2.23641C6.0669 2.07951 5.82544 1.9958 5.5775 2.00016H2.49432C2.21585 2.00016 1.94878 2.11079 1.75187 2.3077C1.55496 2.50461 1.44434 2.77168 1.44434 3.05015C1.44434 3.32863 1.55496 3.5957 1.75187 3.79261C1.94878 3.98952 2.21585 4.10015 2.49432 4.10015H4.70496ZM10.8442 19.9C10.8442 20.457 10.623 20.9911 10.2292 21.3849C9.83534 21.7788 9.30121 22 8.74426 22C8.18731 22 7.65318 21.7788 7.25935 21.3849C6.86553 20.9911 6.64429 20.457 6.64429 19.9C6.64429 19.3431 6.86553 18.8089 7.25935 18.4151C7.65318 18.0213 8.18731 17.8 8.74426 17.8C9.30121 17.8 9.83534 18.0213 10.2292 18.4151C10.623 18.8089 10.8442 19.3431 10.8442 19.9ZM20.2941 19.9C20.2941 20.457 20.0729 20.9911 19.6791 21.3849C19.2852 21.7788 18.7511 22 18.1941 22C17.6372 22 17.1031 21.7788 16.7092 21.3849C16.3154 20.9911 16.0942 20.457 16.0942 19.9C16.0942 19.3431 16.3154 18.8089 16.7092 18.4151C17.1031 18.0213 17.6372 17.8 18.1941 17.8C18.7511 17.8 19.2852 18.0213 19.6791 18.4151C20.0729 18.8089 20.2941 19.3431 20.2941 19.9Z" fill="current"/>
</svg>
