<svg xmlns="http://www.w3.org/2000/svg" viewBox="-2.5 -2.5 24 24" fill="none">
    <path d="M18.4444 5.25H15.7778C15.5016 5.25 15.2778 5.47386 15.2778 5.75V10.875C15.2778 11.7034 14.6062 12.375 13.7778 12.375H6.27778C6.00164 12.375 5.77778 12.5989 5.77778 12.875V14.75C5.77778 15.4058 6.25037 15.9375 6.83333 15.9375H15.3072C15.5535 15.9375 15.7918 16.0345 15.9813 16.2116L18.6586 18.7137C18.9781 19.0123 19.5 18.7857 19.5 18.3484V6.4375C19.5 5.78166 19.0274 5.25 18.4444 5.25Z" fill="current"/>
    <path d="M14.2222 1.6875C14.2222 1.03166 13.7496 0.5 13.1667 0.5H1.55556C0.972588 0.5 0.5 1.03166 0.5 1.6875V13.5984C0.5 14.0357 1.02187 14.2623 1.3414 13.9637L4.01869 11.4616C4.20821 11.2845 4.44646 11.1875 4.69284 11.1875H13.1667C13.7496 11.1875 14.2222 10.6558 14.2222 10V1.6875Z" fill="current"/>
</svg>
