<svg width="29" height="22" viewBox="0 0 29 22" fill="none" xmlns="http://www.w3.org/2000/svg">
    <path d="M0 1.83333C0 1.3471 0.19096 0.880788 0.530869 0.536971C0.870779 0.193155 1.3318 0 1.8125 0H27.1875C27.6682 0 28.1292 0.193155 28.4691 0.536971C28.809 0.880788 29 1.3471 29 1.83333C29 2.31956 28.809 2.78588 28.4691 3.1297C28.1292 3.47351 27.6682 3.66667 27.1875 3.66667H1.8125C1.3318 3.66667 0.870779 3.47351 0.530869 3.1297C0.19096 2.78588 0 2.31956 0 1.83333ZM0 11C0 10.5138 0.19096 10.0475 0.530869 9.70364C0.870779 9.35982 1.3318 9.16667 1.8125 9.16667H27.1875C27.6682 9.16667 28.1292 9.35982 28.4691 9.70364C28.809 10.0475 29 10.5138 29 11C29 11.4862 28.809 11.9525 28.4691 12.2964C28.1292 12.6402 27.6682 12.8333 27.1875 12.8333H1.8125C1.3318 12.8333 0.870779 12.6402 0.530869 12.2964C0.19096 11.9525 0 11.4862 0 11ZM0 20.1667C0 19.6804 0.19096 19.2141 0.530869 18.8703C0.870779 18.5265 1.3318 18.3333 1.8125 18.3333H27.1875C27.6682 18.3333 28.1292 18.5265 28.4691 18.8703C28.809 19.2141 29 19.6804 29 20.1667C29 20.6529 28.809 21.1192 28.4691 21.463C28.1292 21.8068 27.6682 22 27.1875 22H1.8125C1.3318 22 0.870779 21.8068 0.530869 21.463C0.19096 21.1192 0 20.6529 0 20.1667Z" fill="current"/>
</svg>
