<svg xmlns="http://www.w3.org/2000/svg" width="24" height="24" viewBox="0 0 24 24" fill="none">
    <path fill-rule="evenodd" clip-rule="evenodd" d="M7 5C7 3.34315 8.34315 2 10 2H21C21.5523 2 22 2.44772 22 3V5V8V18.5V18.981C22 18.9915 21.9915 19 21.981 19C21.9716 19 21.9636 19.007 21.9622 19.0163C21.7126 20.7045 20.2576 22 18.5 22C16.567 22 15 20.433 15 18.5C15 16.567 16.567 15 18.5 15C19.2197 15 20 14.5065 20 13.7868V9C20 8.44771 19.5523 8 19 8H10C9.44772 8 9 8.44772 9 9V18.5V18.981C9 18.9915 8.9915 19 8.98102 19C8.97157 19 8.96356 19.007 8.96218 19.0163C8.71256 20.7045 7.25757 22 5.5 22C3.567 22 2 20.433 2 18.5C2 16.567 3.567 15 5.5 15C6.2197 15 7 14.5065 7 13.7868V8V5Z" fill="current"/>
</svg>
