<?xml version="1.0" encoding="utf-8"?>
<!-- Generator: Adobe Illustrator 27.1.1, SVG Export Plug-In . SVG Version: 6.00 Build 0)  -->
<svg version="1.1" id="_레이어_1" xmlns="http://www.w3.org/2000/svg" xmlns:xlink="http://www.w3.org/1999/xlink" x="0px"
	 y="0px" viewBox="0 0 34.2 14.6" style="enable-background:new 0 0 34.2 14.6;" xml:space="preserve">
<style type="text/css">
	.st0{fill:#040000;}
</style>
<g>
	<path class="st0" d="M34.2,0.7v1c0,0.2-0.1,0.4-0.4,0.4h-4.2v12.2c0,0.1,0,0.1-0.1,0.2s-0.1,0.1-0.2,0.1h-1c-0.2,0-0.3-0.1-0.3-0.3
		V0.7c0-0.2,0.1-0.3,0.3-0.3h5.5C34,0.4,34.2,0.5,34.2,0.7L34.2,0.7z"/>
	<g>
		<path class="st0" d="M16.2,5.1c0.2-0.5,0.5-1,0.9-1.4c0.4-0.4,0.8-0.8,1.3-1.1c0.5-0.3,1-0.5,1.5-0.7s1.1-0.2,1.7-0.2
			c0.6,0,1.1,0.1,1.7,0.3c0.5,0.2,1,0.4,1.5,0.8c0.2,0.2,0.4,0.1,0.5-0.1l0.5-0.8c0-0.1,0.1-0.2,0-0.2c0-0.1-0.1-0.1-0.2-0.2
			C25.1,1,24.6,0.7,24,0.5s-1.2-0.4-1.8-0.4c-0.6-0.1-1.2-0.1-1.9,0s-1.2,0.2-1.8,0.5c-0.2,0.1-0.4,0.2-0.6,0.3
			C17,1.3,16.3,2,15.6,2.8c-0.3,0.4-0.5,0.7-0.7,1.1c-0.2,0.4-0.4,0.9-0.6,1.4l-2.1,5.2L11.6,12L7.4,1.7C7.3,1.4,7.2,1.2,7.1,1.1
			S7,0.8,7,0.7S6.9,0.5,6.8,0.5c0,0-0.1,0-0.1-0.1c0,0-0.1,0-0.1,0h-1c-0.2,0-0.3,0.1-0.3,0.3c0,0,0,0.1,0,0.2l2.9,6.9
			C7.8,8.4,7.5,9.2,7.2,9.9c-0.1,0.2-0.2,0.4-0.2,0.6c-0.2,0.5-0.4,1-0.6,1.6L2.2,1.7C2,1.2,1.8,0.9,1.7,0.7
			C1.7,0.5,1.6,0.5,1.5,0.4c0,0-0.1,0-0.1,0h-1C0.1,0.4,0,0.5,0,0.7c0,0.1,0,0.1,0,0.2l5.6,13.5c0.1,0.1,0.2,0.2,0.4,0.2h0.6
			c0.1,0,0.2,0,0.2,0c0,0,0.1,0,0.1-0.1c0,0,0-0.1,0.1-0.1L9,9.8l0.6,1.5l1.3,3.1c0,0.1,0.1,0.2,0.2,0.2c0,0,0.1,0,0.2,0h0.6
			c0.1,0,0.2,0,0.2,0c0,0,0,0,0.1-0.1c0,0,0-0.1,0.1-0.1l2.1-5C14.3,9.4,15.9,5.6,16.2,5.1L16.2,5.1z"/>
		<path class="st0" d="M25.7,12.6c0-0.1-0.1-0.2-0.2-0.3c-0.1-0.1-0.2-0.3-0.3-0.5c-0.1-0.1-0.2-0.2-0.2-0.2s-0.2,0-0.3,0.1
			c-0.6,0.4-1.2,0.7-1.9,0.9s-1.3,0.3-1.9,0.2s-1.2-0.1-1.8-0.3c-0.6-0.2-1.1-0.5-1.5-0.9c-0.5-0.4-0.9-0.9-1.2-1.4
			c-0.3-0.5-0.5-1-0.6-1.5l-0.3,0.6L15,10.8c0,0,0,0,0,0.1l0,0c0,0,0,0,0,0c0,0,0,0,0,0c0,0,0,0,0,0c0,0,0,0,0,0c0,0,0,0,0,0l0,0
			l0,0c0.5,0.8,1.1,1.5,1.9,2c0.8,0.6,1.7,1,2.7,1.2c1,0.2,2,0.2,3.1,0c1-0.2,2-0.6,2.8-1.2c0.1-0.1,0.2-0.1,0.2-0.2
			c0-0.1,0-0.1,0-0.2C25.8,12.8,25.7,12.7,25.7,12.6L25.7,12.6z"/>
	</g>
</g>
</svg>
