<?xml version="1.0" encoding="UTF-8"?>
<svg id="_레이어_1" data-name="레이어 1" xmlns="http://www.w3.org/2000/svg" viewBox="0 0 70.87 36.64">
  <defs>
    <style>
      .cls-1 {
        fill: #040000;
      }
    </style>
  </defs>
  <path class="cls-1" d="m53.05,12.98v.98c0,.25-.12.38-.36.38h-4.15v12.18c0,.08-.03.15-.09.22s-.14.1-.25.1h-.99c-.21,0-.32-.11-.32-.32v-13.55c0-.2.11-.3.32-.3h5.48c.2,0,.32.1.36.3Z"/>
  <g>
    <path class="cls-1" d="m35.01,17.37c.24-.53.54-1,.92-1.43.38-.43.8-.79,1.28-1.09.47-.3.98-.52,1.53-.68.55-.16,1.11-.24,1.69-.24.58.04,1.14.14,1.68.31.54.16,1.04.43,1.5.78.2.18.38.15.55-.12l.49-.81c.05-.09.07-.17.04-.23-.03-.06-.09-.13-.2-.21-.51-.37-1.06-.67-1.65-.89-.59-.22-1.19-.37-1.81-.45-.62-.07-1.24-.07-1.86.02-.62.09-1.23.25-1.82.5-.22.09-.43.19-.63.3-.87.47-1.62,1.1-2.24,1.88-.28.35-.53.72-.73,1.11-.23.44-.42.89-.56,1.37l-2.14,5.25-.63,1.54-4.21-10.34c-.11-.25-.19-.45-.25-.61-.06-.16-.11-.29-.16-.39-.05-.1-.1-.17-.17-.21-.04-.02-.08-.04-.12-.05-.04,0-.08-.01-.12-.01h-1.01c-.22,0-.34.09-.34.26,0,.04.01.1.04.18l2.87,6.86c-.3.73-.6,1.45-.89,2.17-.08.2-.16.4-.24.59-.21.52-.41,1.05-.61,1.57l-4.21-10.36c-.2-.49-.34-.82-.41-1-.06-.14-.16-.22-.28-.25-.04,0-.07-.01-.11-.01h-1.01c-.22,0-.34.09-.34.26,0,.08.01.14.04.18l5.62,13.51c.07.15.19.22.38.22h.63c.11,0,.18-.01.24-.03.03-.01.06-.04.08-.08.02-.03.05-.08.07-.13l1.9-4.59.63,1.51,1.27,3.07c.05.11.1.17.16.2.05.03.13.04.24.04h.63c.11,0,.18-.01.24-.04.03-.01.05-.03.07-.06.02-.03.05-.08.07-.13l2.08-4.99s1.57-3.72,1.81-4.24Z"/>
    <path class="cls-1" d="m44.54,24.88c-.05-.09-.11-.2-.18-.32-.08-.13-.17-.28-.28-.46-.08-.13-.15-.2-.22-.2s-.15.03-.26.1c-.62.39-1.25.68-1.89.86-.64.18-1.27.26-1.88.25-.61-.01-1.2-.13-1.76-.34-.56-.21-1.08-.51-1.55-.91-.47-.4-.87-.85-1.18-1.36-.29-.48-.5-.99-.64-1.53l-.26.63-.63,1.5s.03.05.05.09l.02.04s.01.03.02.04c0,.01.01.02.02.03,0,.02.02.03.03.05,0,0,0,.01.01.02,0,0,0,0,0,.01,0,0,0,0,0,0,0,0,0,0,0,0,.49.8,1.12,1.48,1.89,2.04.82.59,1.73,1,2.72,1.23,1.02.22,2.03.24,3.06.04,1.02-.2,1.95-.61,2.78-1.23.08-.07.15-.13.2-.2.05-.07.05-.14,0-.24-.01-.01-.05-.07-.1-.16Z"/>
  </g>
</svg>