<svg xmlns="http://www.w3.org/2000/svg" width="20" height="20" viewBox="0 0 20 20" fill="none">
    <path d="M0.417906 0.444295C0.685572 0.17671 1.04856 0.0263893 1.42704 0.0263893C1.80551 0.0263893 2.1685 0.17671 2.43616 0.444295L9.99108 7.99921L17.546 0.444295C17.6777 0.30797 17.8352 0.199232 18.0093 0.124426C18.1834 0.0496207 18.3707 0.0102457 18.5603 0.00859881C18.7498 0.00695193 18.9377 0.0430658 19.1131 0.114834C19.2886 0.186602 19.4479 0.292586 19.5819 0.426603C19.716 0.56062 19.8219 0.719985 19.8937 0.8954C19.9655 1.07082 20.0016 1.25877 19.9999 1.44829C19.9983 1.63781 19.9589 1.8251 19.8841 1.99925C19.8093 2.17339 19.7006 2.33089 19.5642 2.46255L12.0093 10.0175L19.5642 17.5724C19.8243 17.8416 19.9681 18.2021 19.9649 18.5764C19.9616 18.9506 19.8115 19.3086 19.5469 19.5733C19.2822 19.8379 18.9242 19.988 18.55 19.9913C18.1757 19.9945 17.8152 19.8506 17.546 19.5906L9.99108 12.0357L2.43616 19.5906C2.16697 19.8506 1.80642 19.9945 1.43217 19.9913C1.05793 19.988 0.699933 19.8379 0.435293 19.5733C0.170652 19.3086 0.0205402 18.9506 0.0172881 18.5764C0.0140361 18.2021 0.157905 17.8416 0.417906 17.5724L7.97282 10.0175L0.417906 2.46255C0.150321 2.19489 0 1.8319 0 1.45342C0 1.07495 0.150321 0.711961 0.417906 0.444295Z" fill="current"/>
</svg>
